<mxfile host="app.diagrams.net" modified="2024-06-07T05:01:18.915Z" agent="Mozilla/5.0 (Windows NT 10.0; Win64; x64) AppleWebKit/537.36 (KHTML, like Gecko) Chrome/125.0.0.0 Safari/537.36" etag="pM--w1hBmK_KNFgExBu5" version="24.5.1" type="device">
  <diagram id="C5RBs43oDa-KdzZeNtuy" name="Page-1">
    <mxGraphModel dx="4089" dy="1190" grid="1" gridSize="10" guides="1" tooltips="1" connect="1" arrows="1" fold="1" page="1" pageScale="1" pageWidth="827" pageHeight="1169" math="0" shadow="0">
      <root>
        <mxCell id="WIyWlLk6GJQsqaUBKTNV-0" />
        <mxCell id="WIyWlLk6GJQsqaUBKTNV-1" parent="WIyWlLk6GJQsqaUBKTNV-0" />
        <mxCell id="zkfFHV4jXpPFQw0GAbJ--0" value="Unit" style="swimlane;fontStyle=2;align=center;verticalAlign=top;childLayout=stackLayout;horizontal=1;startSize=26;horizontalStack=0;resizeParent=1;resizeLast=0;collapsible=1;marginBottom=0;rounded=0;shadow=0;strokeWidth=1;" parent="WIyWlLk6GJQsqaUBKTNV-1" vertex="1">
          <mxGeometry x="61" y="40" width="330" height="110" as="geometry">
            <mxRectangle x="230" y="140" width="160" height="26" as="alternateBounds" />
          </mxGeometry>
        </mxCell>
        <mxCell id="zkfFHV4jXpPFQw0GAbJ--1" value="add(const shared_ptr&lt;Unit&gt;&amp;, Flags): void" style="text;align=left;verticalAlign=top;spacingLeft=4;spacingRight=4;overflow=hidden;rotatable=0;points=[[0,0.5],[1,0.5]];portConstraint=eastwest;" parent="zkfFHV4jXpPFQw0GAbJ--0" vertex="1">
          <mxGeometry y="26" width="330" height="26" as="geometry" />
        </mxCell>
        <mxCell id="zkfFHV4jXpPFQw0GAbJ--2" value="compile(unsigned int level = 0): string const" style="text;align=left;verticalAlign=top;spacingLeft=4;spacingRight=4;overflow=hidden;rotatable=0;points=[[0,0.5],[1,0.5]];portConstraint=eastwest;rounded=0;shadow=0;html=0;" parent="zkfFHV4jXpPFQw0GAbJ--0" vertex="1">
          <mxGeometry y="52" width="330" height="26" as="geometry" />
        </mxCell>
        <mxCell id="zkfFHV4jXpPFQw0GAbJ--3" value="generateShift(unsigned int level): string const" style="text;align=left;verticalAlign=top;spacingLeft=4;spacingRight=4;overflow=hidden;rotatable=0;points=[[0,0.5],[1,0.5]];portConstraint=eastwest;rounded=0;shadow=0;html=0;" parent="zkfFHV4jXpPFQw0GAbJ--0" vertex="1">
          <mxGeometry y="78" width="330" height="26" as="geometry" />
        </mxCell>
        <mxCell id="zkfFHV4jXpPFQw0GAbJ--17" value="MethodUnit" style="swimlane;fontStyle=0;align=center;verticalAlign=top;childLayout=stackLayout;horizontal=1;startSize=26;horizontalStack=0;resizeParent=1;resizeLast=0;collapsible=1;marginBottom=0;rounded=0;shadow=0;strokeWidth=1;" parent="WIyWlLk6GJQsqaUBKTNV-1" vertex="1">
          <mxGeometry x="-480" y="250" width="312" height="200" as="geometry">
            <mxRectangle x="550" y="140" width="160" height="26" as="alternateBounds" />
          </mxGeometry>
        </mxCell>
        <mxCell id="zkfFHV4jXpPFQw0GAbJ--18" value="add(const shared_ptr&lt;Unit&gt;&amp; unit, Flags = 0): void" style="text;align=left;verticalAlign=top;spacingLeft=4;spacingRight=4;overflow=hidden;rotatable=0;points=[[0,0.5],[1,0.5]];portConstraint=eastwest;" parent="zkfFHV4jXpPFQw0GAbJ--17" vertex="1">
          <mxGeometry y="26" width="312" height="26" as="geometry" />
        </mxCell>
        <mxCell id="zkfFHV4jXpPFQw0GAbJ--19" value="compile(unsigned int level = 0): const" style="text;align=left;verticalAlign=top;spacingLeft=4;spacingRight=4;overflow=hidden;rotatable=0;points=[[0,0.5],[1,0.5]];portConstraint=eastwest;rounded=0;shadow=0;html=0;" parent="zkfFHV4jXpPFQw0GAbJ--17" vertex="1">
          <mxGeometry y="52" width="312" height="26" as="geometry" />
        </mxCell>
        <mxCell id="zkfFHV4jXpPFQw0GAbJ--23" value="" style="line;html=1;strokeWidth=1;align=left;verticalAlign=middle;spacingTop=-1;spacingLeft=3;spacingRight=3;rotatable=0;labelPosition=right;points=[];portConstraint=eastwest;" parent="zkfFHV4jXpPFQw0GAbJ--17" vertex="1">
          <mxGeometry y="78" width="312" height="8" as="geometry" />
        </mxCell>
        <mxCell id="zkfFHV4jXpPFQw0GAbJ--24" value="m_name: string" style="text;align=left;verticalAlign=top;spacingLeft=4;spacingRight=4;overflow=hidden;rotatable=0;points=[[0,0.5],[1,0.5]];portConstraint=eastwest;" parent="zkfFHV4jXpPFQw0GAbJ--17" vertex="1">
          <mxGeometry y="86" width="312" height="26" as="geometry" />
        </mxCell>
        <mxCell id="zkfFHV4jXpPFQw0GAbJ--25" value="m_returnType:string" style="text;align=left;verticalAlign=top;spacingLeft=4;spacingRight=4;overflow=hidden;rotatable=0;points=[[0,0.5],[1,0.5]];portConstraint=eastwest;" parent="zkfFHV4jXpPFQw0GAbJ--17" vertex="1">
          <mxGeometry y="112" width="312" height="26" as="geometry" />
        </mxCell>
        <mxCell id="dDVOyheSUURkmhtxWZoE-0" value="m_flags:unsigned int" style="text;align=left;verticalAlign=top;spacingLeft=4;spacingRight=4;overflow=hidden;rotatable=0;points=[[0,0.5],[1,0.5]];portConstraint=eastwest;" vertex="1" parent="zkfFHV4jXpPFQw0GAbJ--17">
          <mxGeometry y="138" width="312" height="26" as="geometry" />
        </mxCell>
        <mxCell id="dDVOyheSUURkmhtxWZoE-1" value="m_body:vector&lt;shared_ptr&lt;Unit&gt;&gt;" style="text;align=left;verticalAlign=top;spacingLeft=4;spacingRight=4;overflow=hidden;rotatable=0;points=[[0,0.5],[1,0.5]];portConstraint=eastwest;" vertex="1" parent="zkfFHV4jXpPFQw0GAbJ--17">
          <mxGeometry y="164" width="312" height="26" as="geometry" />
        </mxCell>
        <mxCell id="dDVOyheSUURkmhtxWZoE-2" value="ClassUnit" style="swimlane;fontStyle=0;align=center;verticalAlign=top;childLayout=stackLayout;horizontal=1;startSize=26;horizontalStack=0;resizeParent=1;resizeLast=0;collapsible=1;marginBottom=0;rounded=0;shadow=0;strokeWidth=1;" vertex="1" parent="WIyWlLk6GJQsqaUBKTNV-1">
          <mxGeometry x="61" y="250" width="312" height="200" as="geometry">
            <mxRectangle x="550" y="140" width="160" height="26" as="alternateBounds" />
          </mxGeometry>
        </mxCell>
        <mxCell id="dDVOyheSUURkmhtxWZoE-3" value="add (const shared_ptr&lt;Unit&gt;&amp; unit, Flags flags): void" style="text;align=left;verticalAlign=top;spacingLeft=4;spacingRight=4;overflow=hidden;rotatable=0;points=[[0,0.5],[1,0.5]];portConstraint=eastwest;" vertex="1" parent="dDVOyheSUURkmhtxWZoE-2">
          <mxGeometry y="26" width="312" height="26" as="geometry" />
        </mxCell>
        <mxCell id="dDVOyheSUURkmhtxWZoE-4" value="compile(unsigned int level = 0): string const" style="text;align=left;verticalAlign=top;spacingLeft=4;spacingRight=4;overflow=hidden;rotatable=0;points=[[0,0.5],[1,0.5]];portConstraint=eastwest;rounded=0;shadow=0;html=0;" vertex="1" parent="dDVOyheSUURkmhtxWZoE-2">
          <mxGeometry y="52" width="312" height="26" as="geometry" />
        </mxCell>
        <mxCell id="dDVOyheSUURkmhtxWZoE-5" value="" style="line;html=1;strokeWidth=1;align=left;verticalAlign=middle;spacingTop=-1;spacingLeft=3;spacingRight=3;rotatable=0;labelPosition=right;points=[];portConstraint=eastwest;" vertex="1" parent="dDVOyheSUURkmhtxWZoE-2">
          <mxGeometry y="78" width="312" height="8" as="geometry" />
        </mxCell>
        <mxCell id="dDVOyheSUURkmhtxWZoE-6" value="m_name: string" style="text;align=left;verticalAlign=top;spacingLeft=4;spacingRight=4;overflow=hidden;rotatable=0;points=[[0,0.5],[1,0.5]];portConstraint=eastwest;" vertex="1" parent="dDVOyheSUURkmhtxWZoE-2">
          <mxGeometry y="86" width="312" height="26" as="geometry" />
        </mxCell>
        <mxCell id="dDVOyheSUURkmhtxWZoE-7" value="AccessModifier:vector&lt;String&gt; const " style="text;align=left;verticalAlign=top;spacingLeft=4;spacingRight=4;overflow=hidden;rotatable=0;points=[[0,0.5],[1,0.5]];portConstraint=eastwest;" vertex="1" parent="dDVOyheSUURkmhtxWZoE-2">
          <mxGeometry y="112" width="312" height="26" as="geometry" />
        </mxCell>
        <mxCell id="dDVOyheSUURkmhtxWZoE-8" value="m_flags:unsigned int" style="text;align=left;verticalAlign=top;spacingLeft=4;spacingRight=4;overflow=hidden;rotatable=0;points=[[0,0.5],[1,0.5]];portConstraint=eastwest;" vertex="1" parent="dDVOyheSUURkmhtxWZoE-2">
          <mxGeometry y="138" width="312" height="26" as="geometry" />
        </mxCell>
        <mxCell id="dDVOyheSUURkmhtxWZoE-9" value="m_fields: vector&lt;Fields&gt;" style="text;align=left;verticalAlign=top;spacingLeft=4;spacingRight=4;overflow=hidden;rotatable=0;points=[[0,0.5],[1,0.5]];portConstraint=eastwest;" vertex="1" parent="dDVOyheSUURkmhtxWZoE-2">
          <mxGeometry y="164" width="312" height="26" as="geometry" />
        </mxCell>
        <mxCell id="dDVOyheSUURkmhtxWZoE-10" value="PrintOperatorUnit" style="swimlane;fontStyle=0;align=center;verticalAlign=top;childLayout=stackLayout;horizontal=1;startSize=26;horizontalStack=0;resizeParent=1;resizeLast=0;collapsible=1;marginBottom=0;rounded=0;shadow=0;strokeWidth=1;" vertex="1" parent="WIyWlLk6GJQsqaUBKTNV-1">
          <mxGeometry x="600" y="250" width="312" height="95" as="geometry">
            <mxRectangle x="550" y="140" width="160" height="26" as="alternateBounds" />
          </mxGeometry>
        </mxCell>
        <mxCell id="dDVOyheSUURkmhtxWZoE-12" value="compile(unsigned int level = 0): string const" style="text;align=left;verticalAlign=top;spacingLeft=4;spacingRight=4;overflow=hidden;rotatable=0;points=[[0,0.5],[1,0.5]];portConstraint=eastwest;rounded=0;shadow=0;html=0;" vertex="1" parent="dDVOyheSUURkmhtxWZoE-10">
          <mxGeometry y="26" width="312" height="26" as="geometry" />
        </mxCell>
        <mxCell id="dDVOyheSUURkmhtxWZoE-13" value="" style="line;html=1;strokeWidth=1;align=left;verticalAlign=middle;spacingTop=-1;spacingLeft=3;spacingRight=3;rotatable=0;labelPosition=right;points=[];portConstraint=eastwest;" vertex="1" parent="dDVOyheSUURkmhtxWZoE-10">
          <mxGeometry y="52" width="312" height="8" as="geometry" />
        </mxCell>
        <mxCell id="dDVOyheSUURkmhtxWZoE-14" value="m_text:string" style="text;align=left;verticalAlign=top;spacingLeft=4;spacingRight=4;overflow=hidden;rotatable=0;points=[[0,0.5],[1,0.5]];portConstraint=eastwest;" vertex="1" parent="dDVOyheSUURkmhtxWZoE-10">
          <mxGeometry y="60" width="312" height="26" as="geometry" />
        </mxCell>
        <mxCell id="dDVOyheSUURkmhtxWZoE-18" value="JavaMethod" style="swimlane;fontStyle=0;align=center;verticalAlign=top;childLayout=stackLayout;horizontal=1;startSize=26;horizontalStack=0;resizeParent=1;resizeLast=0;collapsible=1;marginBottom=0;rounded=0;shadow=0;strokeWidth=1;" vertex="1" parent="WIyWlLk6GJQsqaUBKTNV-1">
          <mxGeometry x="-480" y="540" width="312" height="60" as="geometry">
            <mxRectangle x="550" y="140" width="160" height="26" as="alternateBounds" />
          </mxGeometry>
        </mxCell>
        <mxCell id="dDVOyheSUURkmhtxWZoE-19" value="compile(unsigned int level = 0): string const" style="text;align=left;verticalAlign=top;spacingLeft=4;spacingRight=4;overflow=hidden;rotatable=0;points=[[0,0.5],[1,0.5]];portConstraint=eastwest;rounded=0;shadow=0;html=0;" vertex="1" parent="dDVOyheSUURkmhtxWZoE-18">
          <mxGeometry y="26" width="312" height="26" as="geometry" />
        </mxCell>
        <mxCell id="dDVOyheSUURkmhtxWZoE-20" value="" style="line;html=1;strokeWidth=1;align=left;verticalAlign=middle;spacingTop=-1;spacingLeft=3;spacingRight=3;rotatable=0;labelPosition=right;points=[];portConstraint=eastwest;" vertex="1" parent="dDVOyheSUURkmhtxWZoE-18">
          <mxGeometry y="52" width="312" height="8" as="geometry" />
        </mxCell>
        <mxCell id="dDVOyheSUURkmhtxWZoE-30" value="JavaPOU" style="swimlane;fontStyle=0;align=center;verticalAlign=top;childLayout=stackLayout;horizontal=1;startSize=26;horizontalStack=0;resizeParent=1;resizeLast=0;collapsible=1;marginBottom=0;rounded=0;shadow=0;strokeWidth=1;" vertex="1" parent="WIyWlLk6GJQsqaUBKTNV-1">
          <mxGeometry x="600" y="540" width="312" height="95" as="geometry">
            <mxRectangle x="550" y="140" width="160" height="26" as="alternateBounds" />
          </mxGeometry>
        </mxCell>
        <mxCell id="dDVOyheSUURkmhtxWZoE-31" value="compile(unsigned int level = 0): string const" style="text;align=left;verticalAlign=top;spacingLeft=4;spacingRight=4;overflow=hidden;rotatable=0;points=[[0,0.5],[1,0.5]];portConstraint=eastwest;rounded=0;shadow=0;html=0;" vertex="1" parent="dDVOyheSUURkmhtxWZoE-30">
          <mxGeometry y="26" width="312" height="26" as="geometry" />
        </mxCell>
        <mxCell id="dDVOyheSUURkmhtxWZoE-32" value="" style="line;html=1;strokeWidth=1;align=left;verticalAlign=middle;spacingTop=-1;spacingLeft=3;spacingRight=3;rotatable=0;labelPosition=right;points=[];portConstraint=eastwest;" vertex="1" parent="dDVOyheSUURkmhtxWZoE-30">
          <mxGeometry y="52" width="312" height="8" as="geometry" />
        </mxCell>
        <mxCell id="dDVOyheSUURkmhtxWZoE-33" value="m_text:string" style="text;align=left;verticalAlign=top;spacingLeft=4;spacingRight=4;overflow=hidden;rotatable=0;points=[[0,0.5],[1,0.5]];portConstraint=eastwest;" vertex="1" parent="dDVOyheSUURkmhtxWZoE-30">
          <mxGeometry y="60" width="312" height="26" as="geometry" />
        </mxCell>
        <mxCell id="dDVOyheSUURkmhtxWZoE-34" value="CppMethod" style="swimlane;fontStyle=0;align=center;verticalAlign=top;childLayout=stackLayout;horizontal=1;startSize=26;horizontalStack=0;resizeParent=1;resizeLast=0;collapsible=1;marginBottom=0;rounded=0;shadow=0;strokeWidth=1;" vertex="1" parent="WIyWlLk6GJQsqaUBKTNV-1">
          <mxGeometry x="-480" y="690" width="312" height="60" as="geometry">
            <mxRectangle x="550" y="140" width="160" height="26" as="alternateBounds" />
          </mxGeometry>
        </mxCell>
        <mxCell id="dDVOyheSUURkmhtxWZoE-35" value="compile(unsigned int level = 0): string const" style="text;align=left;verticalAlign=top;spacingLeft=4;spacingRight=4;overflow=hidden;rotatable=0;points=[[0,0.5],[1,0.5]];portConstraint=eastwest;rounded=0;shadow=0;html=0;" vertex="1" parent="dDVOyheSUURkmhtxWZoE-34">
          <mxGeometry y="26" width="312" height="26" as="geometry" />
        </mxCell>
        <mxCell id="dDVOyheSUURkmhtxWZoE-36" value="" style="line;html=1;strokeWidth=1;align=left;verticalAlign=middle;spacingTop=-1;spacingLeft=3;spacingRight=3;rotatable=0;labelPosition=right;points=[];portConstraint=eastwest;" vertex="1" parent="dDVOyheSUURkmhtxWZoE-34">
          <mxGeometry y="52" width="312" height="8" as="geometry" />
        </mxCell>
        <mxCell id="dDVOyheSUURkmhtxWZoE-37" value="CsMethod" style="swimlane;fontStyle=0;align=center;verticalAlign=top;childLayout=stackLayout;horizontal=1;startSize=26;horizontalStack=0;resizeParent=1;resizeLast=0;collapsible=1;marginBottom=0;rounded=0;shadow=0;strokeWidth=1;" vertex="1" parent="WIyWlLk6GJQsqaUBKTNV-1">
          <mxGeometry x="-480" y="830" width="312" height="60" as="geometry">
            <mxRectangle x="550" y="140" width="160" height="26" as="alternateBounds" />
          </mxGeometry>
        </mxCell>
        <mxCell id="dDVOyheSUURkmhtxWZoE-38" value="compile(unsigned int level = 0): string const" style="text;align=left;verticalAlign=top;spacingLeft=4;spacingRight=4;overflow=hidden;rotatable=0;points=[[0,0.5],[1,0.5]];portConstraint=eastwest;rounded=0;shadow=0;html=0;" vertex="1" parent="dDVOyheSUURkmhtxWZoE-37">
          <mxGeometry y="26" width="312" height="26" as="geometry" />
        </mxCell>
        <mxCell id="dDVOyheSUURkmhtxWZoE-39" value="" style="line;html=1;strokeWidth=1;align=left;verticalAlign=middle;spacingTop=-1;spacingLeft=3;spacingRight=3;rotatable=0;labelPosition=right;points=[];portConstraint=eastwest;" vertex="1" parent="dDVOyheSUURkmhtxWZoE-37">
          <mxGeometry y="52" width="312" height="8" as="geometry" />
        </mxCell>
        <mxCell id="dDVOyheSUURkmhtxWZoE-40" value="CsPOU" style="swimlane;fontStyle=0;align=center;verticalAlign=top;childLayout=stackLayout;horizontal=1;startSize=26;horizontalStack=0;resizeParent=1;resizeLast=0;collapsible=1;marginBottom=0;rounded=0;shadow=0;strokeWidth=1;" vertex="1" parent="WIyWlLk6GJQsqaUBKTNV-1">
          <mxGeometry x="600" y="857.5" width="312" height="95" as="geometry">
            <mxRectangle x="550" y="140" width="160" height="26" as="alternateBounds" />
          </mxGeometry>
        </mxCell>
        <mxCell id="dDVOyheSUURkmhtxWZoE-41" value="compile(unsigned int level = 0): string const" style="text;align=left;verticalAlign=top;spacingLeft=4;spacingRight=4;overflow=hidden;rotatable=0;points=[[0,0.5],[1,0.5]];portConstraint=eastwest;rounded=0;shadow=0;html=0;" vertex="1" parent="dDVOyheSUURkmhtxWZoE-40">
          <mxGeometry y="26" width="312" height="26" as="geometry" />
        </mxCell>
        <mxCell id="dDVOyheSUURkmhtxWZoE-42" value="" style="line;html=1;strokeWidth=1;align=left;verticalAlign=middle;spacingTop=-1;spacingLeft=3;spacingRight=3;rotatable=0;labelPosition=right;points=[];portConstraint=eastwest;" vertex="1" parent="dDVOyheSUURkmhtxWZoE-40">
          <mxGeometry y="52" width="312" height="8" as="geometry" />
        </mxCell>
        <mxCell id="dDVOyheSUURkmhtxWZoE-43" value="m_text:string" style="text;align=left;verticalAlign=top;spacingLeft=4;spacingRight=4;overflow=hidden;rotatable=0;points=[[0,0.5],[1,0.5]];portConstraint=eastwest;" vertex="1" parent="dDVOyheSUURkmhtxWZoE-40">
          <mxGeometry y="60" width="312" height="26" as="geometry" />
        </mxCell>
        <mxCell id="dDVOyheSUURkmhtxWZoE-44" value="CppPOU" style="swimlane;fontStyle=0;align=center;verticalAlign=top;childLayout=stackLayout;horizontal=1;startSize=26;horizontalStack=0;resizeParent=1;resizeLast=0;collapsible=1;marginBottom=0;rounded=0;shadow=0;strokeWidth=1;" vertex="1" parent="WIyWlLk6GJQsqaUBKTNV-1">
          <mxGeometry x="600" y="707.5" width="312" height="95" as="geometry">
            <mxRectangle x="550" y="140" width="160" height="26" as="alternateBounds" />
          </mxGeometry>
        </mxCell>
        <mxCell id="dDVOyheSUURkmhtxWZoE-45" value="compile(unsigned int level = 0): string const" style="text;align=left;verticalAlign=top;spacingLeft=4;spacingRight=4;overflow=hidden;rotatable=0;points=[[0,0.5],[1,0.5]];portConstraint=eastwest;rounded=0;shadow=0;html=0;" vertex="1" parent="dDVOyheSUURkmhtxWZoE-44">
          <mxGeometry y="26" width="312" height="26" as="geometry" />
        </mxCell>
        <mxCell id="dDVOyheSUURkmhtxWZoE-46" value="" style="line;html=1;strokeWidth=1;align=left;verticalAlign=middle;spacingTop=-1;spacingLeft=3;spacingRight=3;rotatable=0;labelPosition=right;points=[];portConstraint=eastwest;" vertex="1" parent="dDVOyheSUURkmhtxWZoE-44">
          <mxGeometry y="52" width="312" height="8" as="geometry" />
        </mxCell>
        <mxCell id="dDVOyheSUURkmhtxWZoE-47" value="m_text:string" style="text;align=left;verticalAlign=top;spacingLeft=4;spacingRight=4;overflow=hidden;rotatable=0;points=[[0,0.5],[1,0.5]];portConstraint=eastwest;" vertex="1" parent="dDVOyheSUURkmhtxWZoE-44">
          <mxGeometry y="60" width="312" height="26" as="geometry" />
        </mxCell>
        <mxCell id="dDVOyheSUURkmhtxWZoE-48" value="JavaUnit" style="swimlane;fontStyle=0;align=center;verticalAlign=top;childLayout=stackLayout;horizontal=1;startSize=26;horizontalStack=0;resizeParent=1;resizeLast=0;collapsible=1;marginBottom=0;rounded=0;shadow=0;strokeWidth=1;" vertex="1" parent="WIyWlLk6GJQsqaUBKTNV-1">
          <mxGeometry x="70" y="540" width="312" height="100" as="geometry">
            <mxRectangle x="550" y="140" width="160" height="26" as="alternateBounds" />
          </mxGeometry>
        </mxCell>
        <mxCell id="dDVOyheSUURkmhtxWZoE-49" value="add(const shared_ptr&lt;Unit&gt;&amp; unit, Flags flags): void" style="text;align=left;verticalAlign=top;spacingLeft=4;spacingRight=4;overflow=hidden;rotatable=0;points=[[0,0.5],[1,0.5]];portConstraint=eastwest;rounded=0;shadow=0;html=0;" vertex="1" parent="dDVOyheSUURkmhtxWZoE-48">
          <mxGeometry y="26" width="312" height="26" as="geometry" />
        </mxCell>
        <mxCell id="dDVOyheSUURkmhtxWZoE-52" value="compile(unsigned int level = 0): string const" style="text;align=left;verticalAlign=top;spacingLeft=4;spacingRight=4;overflow=hidden;rotatable=0;points=[[0,0.5],[1,0.5]];portConstraint=eastwest;rounded=0;shadow=0;html=0;" vertex="1" parent="dDVOyheSUURkmhtxWZoE-48">
          <mxGeometry y="52" width="312" height="26" as="geometry" />
        </mxCell>
        <mxCell id="dDVOyheSUURkmhtxWZoE-50" value="" style="line;html=1;strokeWidth=1;align=left;verticalAlign=middle;spacingTop=-1;spacingLeft=3;spacingRight=3;rotatable=0;labelPosition=right;points=[];portConstraint=eastwest;" vertex="1" parent="dDVOyheSUURkmhtxWZoE-48">
          <mxGeometry y="78" width="312" height="22" as="geometry" />
        </mxCell>
        <mxCell id="dDVOyheSUURkmhtxWZoE-53" value="CsUnit" style="swimlane;fontStyle=0;align=center;verticalAlign=top;childLayout=stackLayout;horizontal=1;startSize=26;horizontalStack=0;resizeParent=1;resizeLast=0;collapsible=1;marginBottom=0;rounded=0;shadow=0;strokeWidth=1;" vertex="1" parent="WIyWlLk6GJQsqaUBKTNV-1">
          <mxGeometry x="70" y="830" width="312" height="100" as="geometry">
            <mxRectangle x="550" y="140" width="160" height="26" as="alternateBounds" />
          </mxGeometry>
        </mxCell>
        <mxCell id="dDVOyheSUURkmhtxWZoE-54" value="add(const shared_ptr&lt;Unit&gt;&amp; unit, Flags flags): void" style="text;align=left;verticalAlign=top;spacingLeft=4;spacingRight=4;overflow=hidden;rotatable=0;points=[[0,0.5],[1,0.5]];portConstraint=eastwest;rounded=0;shadow=0;html=0;" vertex="1" parent="dDVOyheSUURkmhtxWZoE-53">
          <mxGeometry y="26" width="312" height="26" as="geometry" />
        </mxCell>
        <mxCell id="dDVOyheSUURkmhtxWZoE-55" value="compile(unsigned int level = 0): string const" style="text;align=left;verticalAlign=top;spacingLeft=4;spacingRight=4;overflow=hidden;rotatable=0;points=[[0,0.5],[1,0.5]];portConstraint=eastwest;rounded=0;shadow=0;html=0;" vertex="1" parent="dDVOyheSUURkmhtxWZoE-53">
          <mxGeometry y="52" width="312" height="26" as="geometry" />
        </mxCell>
        <mxCell id="dDVOyheSUURkmhtxWZoE-56" value="" style="line;html=1;strokeWidth=1;align=left;verticalAlign=middle;spacingTop=-1;spacingLeft=3;spacingRight=3;rotatable=0;labelPosition=right;points=[];portConstraint=eastwest;" vertex="1" parent="dDVOyheSUURkmhtxWZoE-53">
          <mxGeometry y="78" width="312" height="22" as="geometry" />
        </mxCell>
        <mxCell id="dDVOyheSUURkmhtxWZoE-57" value="CppUnit" style="swimlane;fontStyle=0;align=center;verticalAlign=top;childLayout=stackLayout;horizontal=1;startSize=26;horizontalStack=0;resizeParent=1;resizeLast=0;collapsible=1;marginBottom=0;rounded=0;shadow=0;strokeWidth=1;" vertex="1" parent="WIyWlLk6GJQsqaUBKTNV-1">
          <mxGeometry x="70" y="685" width="312" height="100" as="geometry">
            <mxRectangle x="550" y="140" width="160" height="26" as="alternateBounds" />
          </mxGeometry>
        </mxCell>
        <mxCell id="dDVOyheSUURkmhtxWZoE-58" value="add(const shared_ptr&lt;Unit&gt;&amp; unit, Flags flags): void" style="text;align=left;verticalAlign=top;spacingLeft=4;spacingRight=4;overflow=hidden;rotatable=0;points=[[0,0.5],[1,0.5]];portConstraint=eastwest;rounded=0;shadow=0;html=0;" vertex="1" parent="dDVOyheSUURkmhtxWZoE-57">
          <mxGeometry y="26" width="312" height="26" as="geometry" />
        </mxCell>
        <mxCell id="dDVOyheSUURkmhtxWZoE-59" value="compile(unsigned int level = 0): string const" style="text;align=left;verticalAlign=top;spacingLeft=4;spacingRight=4;overflow=hidden;rotatable=0;points=[[0,0.5],[1,0.5]];portConstraint=eastwest;rounded=0;shadow=0;html=0;" vertex="1" parent="dDVOyheSUURkmhtxWZoE-57">
          <mxGeometry y="52" width="312" height="26" as="geometry" />
        </mxCell>
        <mxCell id="dDVOyheSUURkmhtxWZoE-60" value="" style="line;html=1;strokeWidth=1;align=left;verticalAlign=middle;spacingTop=-1;spacingLeft=3;spacingRight=3;rotatable=0;labelPosition=right;points=[];portConstraint=eastwest;" vertex="1" parent="dDVOyheSUURkmhtxWZoE-57">
          <mxGeometry y="78" width="312" height="22" as="geometry" />
        </mxCell>
        <mxCell id="dDVOyheSUURkmhtxWZoE-61" value="CsFactory" style="swimlane;fontStyle=0;align=center;verticalAlign=top;childLayout=stackLayout;horizontal=1;startSize=26;horizontalStack=0;resizeParent=1;resizeLast=0;collapsible=1;marginBottom=0;rounded=0;shadow=0;strokeWidth=1;" vertex="1" parent="WIyWlLk6GJQsqaUBKTNV-1">
          <mxGeometry x="-180" y="1043" width="770" height="126" as="geometry">
            <mxRectangle x="550" y="140" width="160" height="26" as="alternateBounds" />
          </mxGeometry>
        </mxCell>
        <mxCell id="dDVOyheSUURkmhtxWZoE-62" value="createClassUnit(const std::string&amp; name): shared_ptr&lt;ClassUnit&gt; const" style="text;align=left;verticalAlign=top;spacingLeft=4;spacingRight=4;overflow=hidden;rotatable=0;points=[[0,0.5],[1,0.5]];portConstraint=eastwest;rounded=0;shadow=0;html=0;" vertex="1" parent="dDVOyheSUURkmhtxWZoE-61">
          <mxGeometry y="26" width="770" height="26" as="geometry" />
        </mxCell>
        <mxCell id="dDVOyheSUURkmhtxWZoE-73" value="createPrintOperatorUnit(const std::string&amp; text) :shared_ptr&lt;MethodUnit&gt; const" style="text;align=left;verticalAlign=top;spacingLeft=4;spacingRight=4;overflow=hidden;rotatable=0;points=[[0,0.5],[1,0.5]];portConstraint=eastwest;rounded=0;shadow=0;html=0;" vertex="1" parent="dDVOyheSUURkmhtxWZoE-61">
          <mxGeometry y="52" width="770" height="26" as="geometry" />
        </mxCell>
        <mxCell id="dDVOyheSUURkmhtxWZoE-63" value="createMethodUnit(const std::string&amp; name, const std::string&amp; returnType, Unit::Flags flags): shared_ptr&lt;MethodUnit&gt; const" style="text;align=left;verticalAlign=top;spacingLeft=4;spacingRight=4;overflow=hidden;rotatable=0;points=[[0,0.5],[1,0.5]];portConstraint=eastwest;rounded=0;shadow=0;html=0;" vertex="1" parent="dDVOyheSUURkmhtxWZoE-61">
          <mxGeometry y="78" width="770" height="26" as="geometry" />
        </mxCell>
        <mxCell id="dDVOyheSUURkmhtxWZoE-64" value="" style="line;html=1;strokeWidth=1;align=left;verticalAlign=middle;spacingTop=-1;spacingLeft=3;spacingRight=3;rotatable=0;labelPosition=right;points=[];portConstraint=eastwest;" vertex="1" parent="dDVOyheSUURkmhtxWZoE-61">
          <mxGeometry y="104" width="770" height="22" as="geometry" />
        </mxCell>
        <mxCell id="dDVOyheSUURkmhtxWZoE-74" value="CppFactory" style="swimlane;fontStyle=0;align=center;verticalAlign=top;childLayout=stackLayout;horizontal=1;startSize=26;horizontalStack=0;resizeParent=1;resizeLast=0;collapsible=1;marginBottom=0;rounded=0;shadow=0;strokeWidth=1;" vertex="1" parent="WIyWlLk6GJQsqaUBKTNV-1">
          <mxGeometry x="730" y="1050" width="770" height="126" as="geometry">
            <mxRectangle x="550" y="140" width="160" height="26" as="alternateBounds" />
          </mxGeometry>
        </mxCell>
        <mxCell id="dDVOyheSUURkmhtxWZoE-75" value="createClassUnit(const std::string&amp; name): shared_ptr&lt;ClassUnit&gt; const" style="text;align=left;verticalAlign=top;spacingLeft=4;spacingRight=4;overflow=hidden;rotatable=0;points=[[0,0.5],[1,0.5]];portConstraint=eastwest;rounded=0;shadow=0;html=0;" vertex="1" parent="dDVOyheSUURkmhtxWZoE-74">
          <mxGeometry y="26" width="770" height="26" as="geometry" />
        </mxCell>
        <mxCell id="dDVOyheSUURkmhtxWZoE-76" value="createPrintOperatorUnit(const std::string&amp; text) :shared_ptr&lt;MethodUnit&gt; const" style="text;align=left;verticalAlign=top;spacingLeft=4;spacingRight=4;overflow=hidden;rotatable=0;points=[[0,0.5],[1,0.5]];portConstraint=eastwest;rounded=0;shadow=0;html=0;" vertex="1" parent="dDVOyheSUURkmhtxWZoE-74">
          <mxGeometry y="52" width="770" height="26" as="geometry" />
        </mxCell>
        <mxCell id="dDVOyheSUURkmhtxWZoE-77" value="createMethodUnit(const std::string&amp; name, const std::string&amp; returnType, Unit::Flags flags): shared_ptr&lt;MethodUnit&gt; const" style="text;align=left;verticalAlign=top;spacingLeft=4;spacingRight=4;overflow=hidden;rotatable=0;points=[[0,0.5],[1,0.5]];portConstraint=eastwest;rounded=0;shadow=0;html=0;" vertex="1" parent="dDVOyheSUURkmhtxWZoE-74">
          <mxGeometry y="78" width="770" height="26" as="geometry" />
        </mxCell>
        <mxCell id="dDVOyheSUURkmhtxWZoE-78" value="" style="line;html=1;strokeWidth=1;align=left;verticalAlign=middle;spacingTop=-1;spacingLeft=3;spacingRight=3;rotatable=0;labelPosition=right;points=[];portConstraint=eastwest;" vertex="1" parent="dDVOyheSUURkmhtxWZoE-74">
          <mxGeometry y="104" width="770" height="22" as="geometry" />
        </mxCell>
        <mxCell id="dDVOyheSUURkmhtxWZoE-79" value="JavaFactory" style="swimlane;fontStyle=0;align=center;verticalAlign=top;childLayout=stackLayout;horizontal=1;startSize=26;horizontalStack=0;resizeParent=1;resizeLast=0;collapsible=1;marginBottom=0;rounded=0;shadow=0;strokeWidth=1;" vertex="1" parent="WIyWlLk6GJQsqaUBKTNV-1">
          <mxGeometry x="-1230" y="1050" width="770" height="126" as="geometry">
            <mxRectangle x="550" y="140" width="160" height="26" as="alternateBounds" />
          </mxGeometry>
        </mxCell>
        <mxCell id="dDVOyheSUURkmhtxWZoE-80" value="createClassUnit(const std::string&amp; name): shared_ptr&lt;ClassUnit&gt; const" style="text;align=left;verticalAlign=top;spacingLeft=4;spacingRight=4;overflow=hidden;rotatable=0;points=[[0,0.5],[1,0.5]];portConstraint=eastwest;rounded=0;shadow=0;html=0;" vertex="1" parent="dDVOyheSUURkmhtxWZoE-79">
          <mxGeometry y="26" width="770" height="26" as="geometry" />
        </mxCell>
        <mxCell id="dDVOyheSUURkmhtxWZoE-81" value="createPrintOperatorUnit(const std::string&amp; text) :shared_ptr&lt;MethodUnit&gt; const" style="text;align=left;verticalAlign=top;spacingLeft=4;spacingRight=4;overflow=hidden;rotatable=0;points=[[0,0.5],[1,0.5]];portConstraint=eastwest;rounded=0;shadow=0;html=0;" vertex="1" parent="dDVOyheSUURkmhtxWZoE-79">
          <mxGeometry y="52" width="770" height="26" as="geometry" />
        </mxCell>
        <mxCell id="dDVOyheSUURkmhtxWZoE-82" value="createMethodUnit(const std::string&amp; name, const std::string&amp; returnType, Unit::Flags flags): shared_ptr&lt;MethodUnit&gt; const" style="text;align=left;verticalAlign=top;spacingLeft=4;spacingRight=4;overflow=hidden;rotatable=0;points=[[0,0.5],[1,0.5]];portConstraint=eastwest;rounded=0;shadow=0;html=0;" vertex="1" parent="dDVOyheSUURkmhtxWZoE-79">
          <mxGeometry y="78" width="770" height="26" as="geometry" />
        </mxCell>
        <mxCell id="dDVOyheSUURkmhtxWZoE-83" value="" style="line;html=1;strokeWidth=1;align=left;verticalAlign=middle;spacingTop=-1;spacingLeft=3;spacingRight=3;rotatable=0;labelPosition=right;points=[];portConstraint=eastwest;" vertex="1" parent="dDVOyheSUURkmhtxWZoE-79">
          <mxGeometry y="104" width="770" height="22" as="geometry" />
        </mxCell>
        <mxCell id="dDVOyheSUURkmhtxWZoE-84" value="AbstractFactory" style="swimlane;fontStyle=0;align=center;verticalAlign=top;childLayout=stackLayout;horizontal=1;startSize=26;horizontalStack=0;resizeParent=1;resizeLast=0;collapsible=1;marginBottom=0;rounded=0;shadow=0;strokeWidth=1;" vertex="1" parent="WIyWlLk6GJQsqaUBKTNV-1">
          <mxGeometry x="-180" y="1360" width="770" height="126" as="geometry">
            <mxRectangle x="550" y="140" width="160" height="26" as="alternateBounds" />
          </mxGeometry>
        </mxCell>
        <mxCell id="dDVOyheSUURkmhtxWZoE-85" value="createClassUnit(const std::string&amp; name): shared_ptr&lt;ClassUnit&gt; const" style="text;align=left;verticalAlign=top;spacingLeft=4;spacingRight=4;overflow=hidden;rotatable=0;points=[[0,0.5],[1,0.5]];portConstraint=eastwest;rounded=0;shadow=0;html=0;" vertex="1" parent="dDVOyheSUURkmhtxWZoE-84">
          <mxGeometry y="26" width="770" height="26" as="geometry" />
        </mxCell>
        <mxCell id="dDVOyheSUURkmhtxWZoE-86" value="createPrintOperatorUnit(const std::string&amp; text) :shared_ptr&lt;MethodUnit&gt; const" style="text;align=left;verticalAlign=top;spacingLeft=4;spacingRight=4;overflow=hidden;rotatable=0;points=[[0,0.5],[1,0.5]];portConstraint=eastwest;rounded=0;shadow=0;html=0;" vertex="1" parent="dDVOyheSUURkmhtxWZoE-84">
          <mxGeometry y="52" width="770" height="26" as="geometry" />
        </mxCell>
        <mxCell id="dDVOyheSUURkmhtxWZoE-87" value="createMethodUnit(const std::string&amp; name, const std::string&amp; returnType, Unit::Flags flags): shared_ptr&lt;MethodUnit&gt; const" style="text;align=left;verticalAlign=top;spacingLeft=4;spacingRight=4;overflow=hidden;rotatable=0;points=[[0,0.5],[1,0.5]];portConstraint=eastwest;rounded=0;shadow=0;html=0;" vertex="1" parent="dDVOyheSUURkmhtxWZoE-84">
          <mxGeometry y="78" width="770" height="26" as="geometry" />
        </mxCell>
        <mxCell id="dDVOyheSUURkmhtxWZoE-88" value="" style="line;html=1;strokeWidth=1;align=left;verticalAlign=middle;spacingTop=-1;spacingLeft=3;spacingRight=3;rotatable=0;labelPosition=right;points=[];portConstraint=eastwest;" vertex="1" parent="dDVOyheSUURkmhtxWZoE-84">
          <mxGeometry y="104" width="770" height="22" as="geometry" />
        </mxCell>
        <mxCell id="dDVOyheSUURkmhtxWZoE-89" value="" style="endArrow=classic;html=1;rounded=0;exitX=0.5;exitY=1;exitDx=0;exitDy=0;entryX=0.5;entryY=0;entryDx=0;entryDy=0;" edge="1" parent="WIyWlLk6GJQsqaUBKTNV-1" source="dDVOyheSUURkmhtxWZoE-61" target="dDVOyheSUURkmhtxWZoE-84">
          <mxGeometry width="50" height="50" relative="1" as="geometry">
            <mxPoint x="-80" y="870" as="sourcePoint" />
            <mxPoint x="-310" y="1200" as="targetPoint" />
          </mxGeometry>
        </mxCell>
        <mxCell id="dDVOyheSUURkmhtxWZoE-90" value="" style="endArrow=classic;html=1;rounded=0;exitX=0.5;exitY=1;exitDx=0;exitDy=0;entryX=0.5;entryY=0;entryDx=0;entryDy=0;" edge="1" parent="WIyWlLk6GJQsqaUBKTNV-1" source="dDVOyheSUURkmhtxWZoE-74" target="dDVOyheSUURkmhtxWZoE-84">
          <mxGeometry width="50" height="50" relative="1" as="geometry">
            <mxPoint x="550" y="1200" as="sourcePoint" />
            <mxPoint x="550" y="1391" as="targetPoint" />
          </mxGeometry>
        </mxCell>
        <mxCell id="dDVOyheSUURkmhtxWZoE-91" value="" style="endArrow=classic;html=1;rounded=0;exitX=0.5;exitY=1;exitDx=0;exitDy=0;entryX=0.5;entryY=0;entryDx=0;entryDy=0;" edge="1" parent="WIyWlLk6GJQsqaUBKTNV-1" source="dDVOyheSUURkmhtxWZoE-79" target="dDVOyheSUURkmhtxWZoE-84">
          <mxGeometry width="50" height="50" relative="1" as="geometry">
            <mxPoint x="-460" y="1250" as="sourcePoint" />
            <mxPoint x="-460" y="1441" as="targetPoint" />
          </mxGeometry>
        </mxCell>
        <mxCell id="dDVOyheSUURkmhtxWZoE-92" value="" style="endArrow=classic;html=1;rounded=0;exitX=0;exitY=0.5;exitDx=0;exitDy=0;entryX=0;entryY=0.5;entryDx=0;entryDy=0;" edge="1" parent="WIyWlLk6GJQsqaUBKTNV-1" source="dDVOyheSUURkmhtxWZoE-37" target="zkfFHV4jXpPFQw0GAbJ--19">
          <mxGeometry width="50" height="50" relative="1" as="geometry">
            <mxPoint x="180" y="610" as="sourcePoint" />
            <mxPoint x="230" y="560" as="targetPoint" />
            <Array as="points">
              <mxPoint x="-810" y="850" />
              <mxPoint x="-810" y="315" />
            </Array>
          </mxGeometry>
        </mxCell>
        <mxCell id="dDVOyheSUURkmhtxWZoE-94" value="" style="endArrow=classic;html=1;rounded=0;exitX=0;exitY=0.5;exitDx=0;exitDy=0;entryX=0;entryY=0.5;entryDx=0;entryDy=0;" edge="1" parent="WIyWlLk6GJQsqaUBKTNV-1" source="dDVOyheSUURkmhtxWZoE-34" target="zkfFHV4jXpPFQw0GAbJ--24">
          <mxGeometry width="50" height="50" relative="1" as="geometry">
            <mxPoint x="-470" y="870" as="sourcePoint" />
            <mxPoint x="-470" y="325" as="targetPoint" />
            <Array as="points">
              <mxPoint x="-800" y="720" />
              <mxPoint x="-800" y="349" />
            </Array>
          </mxGeometry>
        </mxCell>
        <mxCell id="dDVOyheSUURkmhtxWZoE-95" value="" style="endArrow=classic;html=1;rounded=0;exitX=0.006;exitY=-0.017;exitDx=0;exitDy=0;entryX=0;entryY=0.5;entryDx=0;entryDy=0;exitPerimeter=0;" edge="1" parent="WIyWlLk6GJQsqaUBKTNV-1" source="dDVOyheSUURkmhtxWZoE-19" target="zkfFHV4jXpPFQw0GAbJ--25">
          <mxGeometry width="50" height="50" relative="1" as="geometry">
            <mxPoint x="-470" y="730" as="sourcePoint" />
            <mxPoint x="-470" y="359" as="targetPoint" />
            <Array as="points">
              <mxPoint x="-790" y="566" />
              <mxPoint x="-790" y="375" />
            </Array>
          </mxGeometry>
        </mxCell>
        <mxCell id="dDVOyheSUURkmhtxWZoE-96" value="" style="endArrow=classic;html=1;rounded=0;exitX=0;exitY=0.5;exitDx=0;exitDy=0;entryX=0;entryY=0.5;entryDx=0;entryDy=0;" edge="1" parent="WIyWlLk6GJQsqaUBKTNV-1" source="dDVOyheSUURkmhtxWZoE-49" target="dDVOyheSUURkmhtxWZoE-4">
          <mxGeometry width="50" height="50" relative="1" as="geometry">
            <mxPoint x="180" y="610" as="sourcePoint" />
            <mxPoint x="230" y="560" as="targetPoint" />
            <Array as="points">
              <mxPoint x="-100" y="570" />
              <mxPoint x="-100" y="320" />
            </Array>
          </mxGeometry>
        </mxCell>
        <mxCell id="dDVOyheSUURkmhtxWZoE-97" value="" style="endArrow=classic;html=1;rounded=0;exitX=0;exitY=0.5;exitDx=0;exitDy=0;entryX=0;entryY=0.5;entryDx=0;entryDy=0;" edge="1" parent="WIyWlLk6GJQsqaUBKTNV-1" source="dDVOyheSUURkmhtxWZoE-58" target="dDVOyheSUURkmhtxWZoE-6">
          <mxGeometry width="50" height="50" relative="1" as="geometry">
            <mxPoint x="80" y="589" as="sourcePoint" />
            <mxPoint x="71" y="325" as="targetPoint" />
            <Array as="points">
              <mxPoint x="-90" y="724" />
              <mxPoint x="-90" y="349" />
            </Array>
          </mxGeometry>
        </mxCell>
        <mxCell id="dDVOyheSUURkmhtxWZoE-98" value="" style="endArrow=classic;html=1;rounded=0;exitX=0.005;exitY=1.186;exitDx=0;exitDy=0;entryX=0;entryY=0.5;entryDx=0;entryDy=0;exitPerimeter=0;" edge="1" parent="WIyWlLk6GJQsqaUBKTNV-1" source="dDVOyheSUURkmhtxWZoE-54" target="dDVOyheSUURkmhtxWZoE-7">
          <mxGeometry width="50" height="50" relative="1" as="geometry">
            <mxPoint x="90" y="599" as="sourcePoint" />
            <mxPoint x="81" y="335" as="targetPoint" />
            <Array as="points">
              <mxPoint x="-60" y="887" />
              <mxPoint x="-70" y="375" />
            </Array>
          </mxGeometry>
        </mxCell>
        <mxCell id="dDVOyheSUURkmhtxWZoE-99" value="" style="endArrow=classic;html=1;rounded=0;exitX=1;exitY=0.5;exitDx=0;exitDy=0;entryX=1;entryY=0.5;entryDx=0;entryDy=0;" edge="1" parent="WIyWlLk6GJQsqaUBKTNV-1" source="dDVOyheSUURkmhtxWZoE-31" target="dDVOyheSUURkmhtxWZoE-12">
          <mxGeometry width="50" height="50" relative="1" as="geometry">
            <mxPoint x="560" y="610" as="sourcePoint" />
            <mxPoint x="610" y="560" as="targetPoint" />
            <Array as="points">
              <mxPoint x="1110" y="579" />
              <mxPoint x="1110" y="289" />
            </Array>
          </mxGeometry>
        </mxCell>
        <mxCell id="dDVOyheSUURkmhtxWZoE-100" value="" style="endArrow=classic;html=1;rounded=0;" edge="1" parent="WIyWlLk6GJQsqaUBKTNV-1">
          <mxGeometry width="50" height="50" relative="1" as="geometry">
            <mxPoint x="912" y="760" as="sourcePoint" />
            <mxPoint x="912" y="289" as="targetPoint" />
            <Array as="points">
              <mxPoint x="1120" y="760" />
              <mxPoint x="1120" y="289" />
            </Array>
          </mxGeometry>
        </mxCell>
        <mxCell id="dDVOyheSUURkmhtxWZoE-101" value="" style="endArrow=classic;html=1;rounded=0;exitX=1;exitY=0.5;exitDx=0;exitDy=0;entryX=1;entryY=0.5;entryDx=0;entryDy=0;" edge="1" parent="WIyWlLk6GJQsqaUBKTNV-1" source="dDVOyheSUURkmhtxWZoE-41" target="dDVOyheSUURkmhtxWZoE-12">
          <mxGeometry width="50" height="50" relative="1" as="geometry">
            <mxPoint x="922" y="921" as="sourcePoint" />
            <mxPoint x="922" y="450" as="targetPoint" />
            <Array as="points">
              <mxPoint x="1130" y="896" />
              <mxPoint x="1130" y="290" />
            </Array>
          </mxGeometry>
        </mxCell>
        <mxCell id="dDVOyheSUURkmhtxWZoE-103" value="Use" style="html=1;verticalAlign=bottom;endArrow=open;dashed=1;endSize=8;curved=0;rounded=0;exitX=0.5;exitY=0;exitDx=0;exitDy=0;entryX=0.5;entryY=1;entryDx=0;entryDy=0;" edge="1" parent="WIyWlLk6GJQsqaUBKTNV-1" source="dDVOyheSUURkmhtxWZoE-61" target="dDVOyheSUURkmhtxWZoE-53">
          <mxGeometry relative="1" as="geometry">
            <mxPoint x="280" y="890" as="sourcePoint" />
            <mxPoint x="200" y="890" as="targetPoint" />
          </mxGeometry>
        </mxCell>
        <mxCell id="dDVOyheSUURkmhtxWZoE-105" value="Use" style="html=1;verticalAlign=bottom;endArrow=open;dashed=1;endSize=8;curved=0;rounded=0;exitX=0.5;exitY=0;exitDx=0;exitDy=0;entryX=0;entryY=0.5;entryDx=0;entryDy=0;" edge="1" parent="WIyWlLk6GJQsqaUBKTNV-1" source="dDVOyheSUURkmhtxWZoE-61" target="dDVOyheSUURkmhtxWZoE-41">
          <mxGeometry relative="1" as="geometry">
            <mxPoint x="215" y="1053" as="sourcePoint" />
            <mxPoint x="236" y="940" as="targetPoint" />
          </mxGeometry>
        </mxCell>
        <mxCell id="dDVOyheSUURkmhtxWZoE-106" value="Use" style="html=1;verticalAlign=bottom;endArrow=open;dashed=1;endSize=8;curved=0;rounded=0;exitX=0.5;exitY=0;exitDx=0;exitDy=0;entryX=0.5;entryY=1;entryDx=0;entryDy=0;" edge="1" parent="WIyWlLk6GJQsqaUBKTNV-1" source="dDVOyheSUURkmhtxWZoE-61" target="dDVOyheSUURkmhtxWZoE-37">
          <mxGeometry relative="1" as="geometry">
            <mxPoint x="225" y="1063" as="sourcePoint" />
            <mxPoint x="246" y="950" as="targetPoint" />
          </mxGeometry>
        </mxCell>
        <mxCell id="dDVOyheSUURkmhtxWZoE-108" value="Use" style="html=1;verticalAlign=bottom;endArrow=open;dashed=1;endSize=8;curved=0;rounded=0;exitX=0.5;exitY=0;exitDx=0;exitDy=0;entryX=0;entryY=1;entryDx=0;entryDy=0;" edge="1" parent="WIyWlLk6GJQsqaUBKTNV-1" source="dDVOyheSUURkmhtxWZoE-79" target="dDVOyheSUURkmhtxWZoE-18">
          <mxGeometry relative="1" as="geometry">
            <mxPoint x="225" y="1063" as="sourcePoint" />
            <mxPoint x="-304" y="910" as="targetPoint" />
            <Array as="points">
              <mxPoint x="-860" y="590" />
            </Array>
          </mxGeometry>
        </mxCell>
        <mxCell id="dDVOyheSUURkmhtxWZoE-109" value="Use" style="html=1;verticalAlign=bottom;endArrow=open;dashed=1;endSize=8;curved=0;rounded=0;entryX=0.5;entryY=0;entryDx=0;entryDy=0;exitX=0.5;exitY=0;exitDx=0;exitDy=0;" edge="1" parent="WIyWlLk6GJQsqaUBKTNV-1" source="dDVOyheSUURkmhtxWZoE-79" target="dDVOyheSUURkmhtxWZoE-48">
          <mxGeometry relative="1" as="geometry">
            <mxPoint x="-740" y="1010" as="sourcePoint" />
            <mxPoint x="-470" y="610" as="targetPoint" />
            <Array as="points">
              <mxPoint x="-870" y="460" />
            </Array>
          </mxGeometry>
        </mxCell>
        <mxCell id="dDVOyheSUURkmhtxWZoE-110" value="Use" style="html=1;verticalAlign=bottom;endArrow=open;dashed=1;endSize=8;curved=0;rounded=0;exitX=0.5;exitY=0;exitDx=0;exitDy=0;entryX=0.5;entryY=0;entryDx=0;entryDy=0;" edge="1" parent="WIyWlLk6GJQsqaUBKTNV-1" source="dDVOyheSUURkmhtxWZoE-79" target="dDVOyheSUURkmhtxWZoE-30">
          <mxGeometry relative="1" as="geometry">
            <mxPoint x="-825" y="1070" as="sourcePoint" />
            <mxPoint x="-460" y="620" as="targetPoint" />
            <Array as="points">
              <mxPoint x="-890" y="450" />
            </Array>
          </mxGeometry>
        </mxCell>
        <mxCell id="dDVOyheSUURkmhtxWZoE-113" value="Use" style="html=1;verticalAlign=bottom;endArrow=open;dashed=1;endSize=8;curved=0;rounded=0;exitX=0.5;exitY=0;exitDx=0;exitDy=0;entryX=1;entryY=1;entryDx=0;entryDy=0;" edge="1" parent="WIyWlLk6GJQsqaUBKTNV-1" source="dDVOyheSUURkmhtxWZoE-74" target="dDVOyheSUURkmhtxWZoE-44">
          <mxGeometry relative="1" as="geometry">
            <mxPoint x="970" y="830" as="sourcePoint" />
            <mxPoint x="890" y="830" as="targetPoint" />
          </mxGeometry>
        </mxCell>
        <mxCell id="dDVOyheSUURkmhtxWZoE-114" value="Use" style="html=1;verticalAlign=bottom;endArrow=open;dashed=1;endSize=8;curved=0;rounded=0;exitX=0.5;exitY=0;exitDx=0;exitDy=0;entryX=1;entryY=0.5;entryDx=0;entryDy=0;" edge="1" parent="WIyWlLk6GJQsqaUBKTNV-1" source="dDVOyheSUURkmhtxWZoE-74" target="dDVOyheSUURkmhtxWZoE-59">
          <mxGeometry relative="1" as="geometry">
            <mxPoint x="980" y="840" as="sourcePoint" />
            <mxPoint x="900" y="840" as="targetPoint" />
            <Array as="points">
              <mxPoint x="550" y="980" />
            </Array>
          </mxGeometry>
        </mxCell>
        <mxCell id="dDVOyheSUURkmhtxWZoE-115" value="Use" style="html=1;verticalAlign=bottom;endArrow=open;dashed=1;endSize=8;curved=0;rounded=0;exitX=0.5;exitY=0;exitDx=0;exitDy=0;entryX=1.003;entryY=0.123;entryDx=0;entryDy=0;entryPerimeter=0;" edge="1" parent="WIyWlLk6GJQsqaUBKTNV-1" source="dDVOyheSUURkmhtxWZoE-74" target="dDVOyheSUURkmhtxWZoE-35">
          <mxGeometry relative="1" as="geometry">
            <mxPoint x="990" y="850" as="sourcePoint" />
            <mxPoint x="910" y="850" as="targetPoint" />
            <Array as="points">
              <mxPoint x="100" y="980" />
            </Array>
          </mxGeometry>
        </mxCell>
        <mxCell id="dDVOyheSUURkmhtxWZoE-117" value="" style="endArrow=classic;html=1;rounded=0;exitX=0.5;exitY=0;exitDx=0;exitDy=0;entryX=0;entryY=0.5;entryDx=0;entryDy=0;" edge="1" parent="WIyWlLk6GJQsqaUBKTNV-1" source="zkfFHV4jXpPFQw0GAbJ--17" target="zkfFHV4jXpPFQw0GAbJ--1">
          <mxGeometry width="50" height="50" relative="1" as="geometry">
            <mxPoint x="100" y="290" as="sourcePoint" />
            <mxPoint x="150" y="240" as="targetPoint" />
            <Array as="points">
              <mxPoint x="-330" y="79" />
            </Array>
          </mxGeometry>
        </mxCell>
        <mxCell id="dDVOyheSUURkmhtxWZoE-119" value="" style="endArrow=classic;html=1;rounded=0;exitX=0.5;exitY=0;exitDx=0;exitDy=0;entryX=0.5;entryY=1;entryDx=0;entryDy=0;" edge="1" parent="WIyWlLk6GJQsqaUBKTNV-1" source="dDVOyheSUURkmhtxWZoE-2" target="zkfFHV4jXpPFQw0GAbJ--0">
          <mxGeometry width="50" height="50" relative="1" as="geometry">
            <mxPoint x="100" y="290" as="sourcePoint" />
            <mxPoint x="150" y="240" as="targetPoint" />
          </mxGeometry>
        </mxCell>
        <mxCell id="dDVOyheSUURkmhtxWZoE-121" value="" style="endArrow=classic;html=1;rounded=0;exitX=0.5;exitY=0;exitDx=0;exitDy=0;entryX=1;entryY=0.5;entryDx=0;entryDy=0;" edge="1" parent="WIyWlLk6GJQsqaUBKTNV-1" source="dDVOyheSUURkmhtxWZoE-10" target="zkfFHV4jXpPFQw0GAbJ--0">
          <mxGeometry width="50" height="50" relative="1" as="geometry">
            <mxPoint x="227" y="260" as="sourcePoint" />
            <mxPoint x="236" y="160" as="targetPoint" />
            <Array as="points">
              <mxPoint x="756" y="95" />
            </Array>
          </mxGeometry>
        </mxCell>
      </root>
    </mxGraphModel>
  </diagram>
</mxfile>
